<svg id="Guggenheim_LOGOTYPE" data-name="Guggenheim LOGOTYPE" xmlns="http://www.w3.org/2000/svg" viewBox="0 0 187 13.9"><defs><style>.cls-1{fill:#53284f;}</style></defs><path class="cls-1" d="M8.18,5.85V8.11h5.26v3.25H3V2.54H16.37V0H2.82A2.82,2.82,0,0,0,0,2.82v8.25A2.83,2.83,0,0,0,2.82,13.9H13.54a2.83,2.83,0,0,0,2.83-2.83V5.85Z"/><path class="cls-1" d="M33.22,0V11.29H24.05V0H20.73V11.07a2.83,2.83,0,0,0,2.82,2.83H33.72a2.83,2.83,0,0,0,2.82-2.83V0Z"/><path class="cls-1" d="M49,5.85V8.11h5.26v3.25H43.88V2.54H57.22V0H43.67a2.82,2.82,0,0,0-2.82,2.82v8.25a2.83,2.83,0,0,0,2.82,2.83H54.39a2.83,2.83,0,0,0,2.83-2.83V5.85Z"/><path class="cls-1" d="M69.4,5.85V8.11h5.26v3.25H64.25V2.54H77.59V0H64a2.82,2.82,0,0,0-2.82,2.82v8.25A2.83,2.83,0,0,0,64,13.9H74.76a2.83,2.83,0,0,0,2.83-2.83V5.85Z"/><polygon class="cls-1" points="96.75 2.38 96.75 0 82.26 0 82.26 13.9 96.75 13.9 96.75 11.52 85.48 11.52 85.48 7.74 94.15 7.74 94.15 5.36 85.48 5.36 85.48 2.38 96.75 2.38"/><path class="cls-1" d="M113.18,0h-13V13.9h3.2V2.49h9.41V13.9H116V2.82A2.82,2.82,0,0,0,113.18,0Z"/><polygon class="cls-1" points="133.66 0 133.66 5.34 123.33 5.34 123.33 0 120.11 0 120.11 13.9 123.33 13.9 123.33 7.9 133.66 7.9 133.66 13.9 136.88 13.9 136.88 0 133.66 0"/><polygon class="cls-1" points="155.67 2.38 155.67 0 141.18 0 141.18 13.9 155.67 13.9 155.67 11.52 144.4 11.52 144.4 7.74 153.07 7.74 153.07 5.36 144.4 5.36 144.4 2.38 155.67 2.38"/><rect class="cls-1" x="159.31" width="3.22" height="13.9"/><path class="cls-1" d="M184.18,0H166.8V13.9H170V2.49h5.27V13.9h3.22V2.49h5.27V13.9H187V2.82A2.82,2.82,0,0,0,184.18,0Z"/></svg>